# xmcd
#
# Track frame offsets: 
#        150
#        20127
#        38575
#        60364
#        69646
#        78404
#        88071
#        100051
#        104680
#        115902
#        125198
#        127387
#        130930
#        142055
#        149488
#        152500
#        160170
#        167595
#        184706
#        200256
#
# Disc length: 2813 seconds
#
# Revision: 1
# Processed by: cddbd v1.5.2PL0 Copyright (c) Steve Scherf et al.
# Submitted via: ExactAudioCopy v1.0b2
#
DISCID=250afb14
DTITLE=Soundtrack - 步步驚心 (中)
DYEAR=2011
DGENRE=Pop
TTITLE0=胡歌&阿蘭 - 一念執著
TTITLE1=劉詩詩 - 等你的季節
TTITLE2=嚴藝丹 - 三寸天堂
TTITLE3=黃英華 - 步步驚心
TTITLE4=黃英華 - 奇夢
TTITLE5=黃英華 - 別恐懼
TTITLE6=黃英華 - 堡壘
TTITLE7=黃英華 - 毒
TTITLE8=黃英華 - 陌生
TTITLE9=黃英華 - 郁
TTITLE10=黃英華 - 皇室來臨
TTITLE11=黃英華 - 功夫
TTITLE12=黃英華 - 傾慕
TTITLE13=黃英華 - 歡欣
TTITLE14=黃英華 - 奇幻
TTITLE15=黃英華 - 小可愛
TTITLE16=黃英華 - 情毒
TTITLE17=黃英華 - 不要走
TTITLE18=黃英華 - 悲
TTITLE19=黃英華 - 追驚
EXTD=
EXTT0=
EXTT1=
EXTT2=
EXTT3=
EXTT4=
EXTT5=
EXTT6=
EXTT7=
EXTT8=
EXTT9=
EXTT10=
EXTT11=
EXTT12=
EXTT13=
EXTT14=
EXTT15=
EXTT16=
EXTT17=
EXTT18=
EXTT19=
PLAYORDER=
